<svg xmlns="http://www.w3.org/2000/svg" height="1024" preserveAspectRatio="none" style="display: block;" version="1.1" viewBox="0 0 2048 2048" width="1024">
<defs>
	<linearGradient gradientUnits="userSpaceOnUse" id="Gradient1" x1="1457.67" x2="1446.14" y1="786.072" y2="762.548">
		<stop class="stop0" offset="0" stop-color="rgb(134,81,22)" stop-opacity="1"></stop>
		<stop class="stop1" offset="1" stop-color="rgb(186,103,31)" stop-opacity="1"></stop>
	</linearGradient>
</defs>
<path d="M 0 0 L 2048 0 L 2048 2048 L 0 2048 L 0 0 z" fill="rgb(11,16,32)" transform="translate(0,0)"></path>
<path d="M 839.63 686.189 C 885.339 610.374 928.477 532.282 973.918 456.32 C 982.409 442.127 1014.23 384.935 1022.8 376.201 C 1029.44 375.746 1034.67 388.951 1037.89 394.514 C 1045.51 407.66 1053.08 420.824 1060.72 433.955 L 1152.55 591.518 L 1186.24 648.915 C 1192.88 660.326 1200.91 675.294 1208.01 686.011 L 1490.13 686.938 L 1560.29 687.091 C 1566.7 687.11 1588.98 687.559 1593.87 686.713 C 1595.95 689.916 1596.67 689.761 1596.3 693.712 C 1595.97 697.244 1589.77 707.994 1587.68 710.125 C 1574.55 736.069 1551.2 772.412 1535.73 798.313 L 1453.13 938.921 C 1437.65 965.29 1417.8 997.17 1403.83 1023.55 C 1417.13 1049.69 1439.85 1085.6 1455.19 1111.47 C 1489.41 1168.83 1523.32 1226.37 1556.91 1284.1 C 1566.12 1300.27 1575.46 1316.38 1584.9 1332.42 C 1589.09 1339.42 1598.14 1349.22 1595.91 1356.4 C 1589.86 1361 1499.18 1359.03 1484.51 1359.34 C 1393.28 1361.25 1301.63 1358.87 1210.41 1360.57 L 1094.11 1558.65 C 1074.25 1592.43 1049.53 1631.62 1031.67 1665.74 C 1029.38 1669.77 1028.55 1671.79 1023.77 1672.47 C 1020.55 1671.08 1020.12 1669.91 1018.12 1667.04 C 992.249 1625.65 966.257 1577.8 940.992 1535.22 L 882.231 1434.42 C 868.505 1411.02 851.599 1383.81 839.264 1360.18 L 571.468 1359.25 C 534.647 1359.02 490.638 1360.27 454.514 1358.76 C 448.84 1357.71 450.104 1353.42 451.494 1349.43 C 464.082 1330.32 474.201 1311.55 485.787 1291.95 L 549.561 1183.99 L 612.351 1077.49 C 622.661 1060.01 634.52 1041.34 643.953 1023.54 L 532.515 832.678 L 492.15 764.485 C 487.207 756.084 475.867 737.845 472.352 729.514 C 466.173 720.509 457.848 703.704 451.031 694.018 C 450.433 693.169 451.128 689.293 451.295 688.225 C 456.742 685.968 462.361 686.864 468.516 686.97 C 477.087 686.147 498.713 686.806 508.097 686.839 L 586.221 687.004 L 839.63 686.189 z" fill="rgb(158,93,25)" transform="translate(0,0)"></path>
<path d="M 1021.88 1026.04 L 1024.56 1025.16 L 1037.97 1032.96 L 1189.67 1121.1 C 1225.46 1141.73 1265.71 1163.91 1300.65 1185.57 C 1268.92 1239.07 1236.84 1296.52 1204.65 1349.01 C 1203.03 1351.95 1200.31 1357.29 1198.3 1359.69 C 1153.94 1361.06 1074.95 1359.1 1027.43 1360.2 C 1027 1360.6 1026.58 1361 1026.15 1361.4 L 1025.71 1363.74 C 1026.56 1398.4 1026.1 1434.89 1026.2 1469.66 C 1026.24 1484.37 1027.27 1516.27 1026.16 1529.98 C 1024.86 1542.35 1025.65 1566.89 1025.67 1580.21 C 1025.79 1602.32 1025.57 1624.47 1025.57 1646.58 C 1025.57 1653.76 1026.69 1660.28 1031.67 1665.74 C 1029.38 1669.77 1028.55 1671.79 1023.77 1672.47 C 1020.55 1671.08 1020.12 1669.91 1018.12 1667.04 C 1018.73 1661.09 1019.18 1655.11 1019.47 1649.13 L 1019.84 1646.64 C 1019.04 1610.04 1020.24 1568.8 1020.52 1531.87 L 1021.09 1360.3 C 1021.3 1356.86 1021.21 1352.5 1021.24 1348.97 C 1019.83 1320.19 1021.24 1275.87 1021.38 1246.38 C 1021.93 1172.93 1022.1 1099.49 1021.88 1026.04 z" fill="rgb(11,16,32)" transform="translate(0,0)"></path>
<path d="M 1021.88 1026.04 L 1024.56 1025.16 C 1025.64 1038.05 1025.15 1058.13 1025.17 1071.61 L 1025.41 1156.3 L 1025.71 1287.26 C 1025.69 1306.23 1026.44 1330.45 1025.58 1348.96 C 1025.43 1352.19 1024.87 1361.02 1025.71 1363.74 C 1026.56 1398.4 1026.1 1434.89 1026.2 1469.66 C 1026.24 1484.37 1027.27 1516.27 1026.16 1529.98 C 1024.86 1542.35 1025.65 1566.89 1025.67 1580.21 C 1025.79 1602.32 1025.57 1624.47 1025.57 1646.58 C 1025.57 1653.76 1026.69 1660.28 1031.67 1665.74 C 1029.38 1669.77 1028.55 1671.79 1023.77 1672.47 C 1020.55 1671.08 1020.12 1669.91 1018.12 1667.04 C 1018.73 1661.09 1019.18 1655.11 1019.47 1649.13 L 1019.84 1646.64 C 1019.04 1610.04 1020.24 1568.8 1020.52 1531.87 L 1021.09 1360.3 C 1021.3 1356.86 1021.21 1352.5 1021.24 1348.97 C 1019.83 1320.19 1021.24 1275.87 1021.38 1246.38 C 1021.93 1172.93 1022.1 1099.49 1021.88 1026.04 z" fill="rgb(184,103,23)" transform="translate(0,0)"></path>
<path d="M 1025.58 1348.96 C 1085.27 1349.4 1144.96 1349.42 1204.65 1349.01 C 1203.03 1351.95 1200.31 1357.29 1198.3 1359.69 C 1153.94 1361.06 1074.95 1359.1 1027.43 1360.2 C 1027 1360.6 1026.58 1361 1026.15 1361.4 L 1025.71 1363.74 C 1024.87 1361.02 1025.43 1352.19 1025.58 1348.96 z" fill="rgb(135,82,31)" transform="translate(0,0)"></path>
<path d="M 747.727 864.465 C 747.96 863.658 748.194 861.625 748.325 860.711 L 912.098 956.334 L 974.013 992.749 C 982.568 997.749 995.872 1006.15 1004.12 1010.14 L 1021.82 1021.06 L 1021.96 1007.23 C 1021.86 994.492 1021.91 981.753 1022.1 969.015 C 1026.82 976.421 1021.83 989.517 1024.85 993.679 C 1025.33 1001.98 1025.03 1012.66 1025.03 1021.13 L 1250.61 890.543 C 1266.59 881.254 1283.16 872.504 1298.97 863.07 L 1299.9 865.437 C 1293.77 870.399 1281.15 877.355 1274 881.562 C 1258.32 890.805 1242.58 899.966 1226.8 909.046 L 1101.99 980.441 C 1077.32 994.425 1050.73 1008.26 1026.88 1023.44 L 1039.92 1031.19 L 1037.97 1032.96 L 1024.56 1025.16 L 1021.88 1026.04 C 1011.34 1030.45 978.083 1051.78 966.308 1058.54 C 913.233 1089.66 859.994 1120.51 806.593 1151.07 C 796.806 1156.75 755.554 1181.56 748.214 1184.06 L 746.463 1182.64 C 743.375 1176.5 739.201 1170.34 735.862 1164.27 C 709.527 1116.39 678.246 1070.02 652.433 1022.03 C 671.044 992.287 689.203 962.261 706.905 931.964 C 712.168 923.029 742.352 869.099 747.727 864.465 z" fill="rgb(11,16,32)" transform="translate(0,0)"></path>
<path d="M 747.727 864.465 C 747.96 863.658 748.194 861.625 748.325 860.711 L 912.098 956.334 L 974.013 992.749 C 982.568 997.749 995.872 1006.15 1004.12 1010.14 L 1021.82 1021.06 L 1021.96 1007.23 C 1021.86 994.492 1021.91 981.753 1022.1 969.015 C 1026.82 976.421 1021.83 989.517 1024.85 993.679 C 1025.33 1001.98 1025.03 1012.66 1025.03 1021.13 L 1250.61 890.543 C 1266.59 881.254 1283.16 872.504 1298.97 863.07 L 1299.9 865.437 C 1293.77 870.399 1281.15 877.355 1274 881.562 C 1258.32 890.805 1242.58 899.966 1226.8 909.046 L 1101.99 980.441 C 1077.32 994.425 1050.73 1008.26 1026.88 1023.44 L 1039.92 1031.19 L 1037.97 1032.96 L 1024.56 1025.16 L 1021.88 1026.04 C 1011.34 1030.45 978.083 1051.78 966.308 1058.54 C 913.233 1089.66 859.994 1120.51 806.593 1151.07 C 796.806 1156.75 755.554 1181.56 748.214 1184.06 L 746.463 1182.64 C 767.405 1167.84 804.005 1148.12 826.835 1134.97 L 930.235 1075.11 C 956.078 1060.36 981.912 1046.52 1007.36 1030.96 C 1011.92 1028.71 1016.51 1025.92 1020.92 1023.36 C 1016.62 1020.72 1011.73 1018.04 1007.31 1015.5 C 995.987 1007.05 956.268 985.414 942.144 977.193 L 818.175 906.105 C 795.743 893.195 769.383 878.337 747.727 864.465 z" fill="rgb(135,82,31)" transform="translate(0,0)"></path>
<path d="M 1025.22 795.418 C 1024.41 785.802 1024.82 769.277 1024.83 759.115 L 1025 688.017 L 1024.92 620.287 C 1024.93 609.704 1024.53 591.37 1025.8 581.472 C 1026.42 615.449 1025.92 650.95 1025.81 685.018 L 1195.73 685.005 C 1197.68 688.212 1199.99 691.743 1201.5 695.133 L 1263.58 801.429 C 1269.51 811.482 1297.45 856.415 1298.97 863.07 C 1283.16 872.504 1266.59 881.254 1250.61 890.543 L 1025.03 1021.13 C 1025.03 1012.66 1025.33 1001.98 1024.85 993.679 C 1025.94 973.767 1025 943.21 1025.03 922.482 L 1025.22 795.418 z" fill="rgb(11,16,32)" transform="translate(0,0)"></path>
<path d="M 1025.22 795.418 C 1024.41 785.802 1024.82 769.277 1024.83 759.115 L 1025 688.017 L 1024.92 620.287 C 1024.93 609.704 1024.53 591.37 1025.8 581.472 C 1026.42 615.449 1025.92 650.95 1025.81 685.018 L 1195.73 685.005 C 1197.68 688.212 1199.99 691.743 1201.5 695.133 C 1143.01 694.888 1084.09 693.564 1025.75 693.881 L 1025.73 757.594 C 1025.72 768.911 1026.09 784.44 1025.22 795.418 z" fill="rgb(135,82,31)" transform="translate(0,0)"></path>
<path d="M 748.214 1184.06 C 755.554 1181.56 796.806 1156.75 806.593 1151.07 C 859.994 1120.51 913.233 1089.66 966.308 1058.54 C 978.083 1051.78 1011.34 1030.45 1021.88 1026.04 C 1022.1 1099.49 1021.93 1172.93 1021.38 1246.38 C 1021.24 1275.87 1019.83 1320.19 1021.24 1348.97 C 1021.21 1352.5 1021.3 1356.86 1021.09 1360.3 C 979.029 1361.55 936.405 1359.76 894.286 1360.42 C 880.267 1360.63 865.707 1360.64 851.712 1360.16 C 849.32 1356.1 846.868 1352.06 844.357 1348.07 C 835.897 1336.59 820.71 1309.38 812.948 1296.25 C 791 1259.07 769.421 1221.67 748.214 1184.06 z" fill="rgb(11,16,32)" transform="translate(0,0)"></path>
<path d="M 844.357 1348.07 C 903.321 1348.07 962.284 1348.37 1021.24 1348.97 C 1021.21 1352.5 1021.3 1356.86 1021.09 1360.3 C 979.029 1361.55 936.405 1359.76 894.286 1360.42 C 880.267 1360.63 865.707 1360.64 851.712 1360.16 C 849.32 1356.1 846.868 1352.06 844.357 1348.07 z" fill="rgb(135,82,31)" transform="translate(0,0)"></path>
<path d="M 851.769 685.824 L 965.481 686.06 C 980.888 686.044 1006.27 686.741 1020.87 685.764 L 1020.83 694.141 C 1020.65 757.078 1020.93 820.016 1021.67 882.949 C 1021.93 909.03 1020.77 943.823 1022.1 969.015 C 1021.91 981.753 1021.86 994.492 1021.96 1007.23 L 1021.82 1021.06 L 1004.12 1010.14 C 995.872 1006.15 982.568 997.749 974.013 992.749 L 912.098 956.334 L 748.325 860.711 C 754.216 848.265 770.315 823.135 777.928 809.932 C 793.108 783.334 808.702 756.973 824.701 730.86 C 829.824 722.416 841.606 701.962 847.196 695.248 C 848.695 691.918 850.1 689.072 851.769 685.824 z" fill="rgb(11,16,32)" transform="translate(0,0)"></path>
<path d="M 851.769 685.824 L 965.481 686.06 C 980.888 686.044 1006.27 686.741 1020.87 685.764 L 1020.83 694.141 C 1008 693.063 973.475 694.331 959.536 694.505 L 847.196 695.248 C 848.695 691.918 850.1 689.072 851.769 685.824 z" fill="rgb(135,82,31)" transform="translate(0,0)"></path>
<path d="M 1299.9 865.437 C 1304.48 868.03 1382.46 1005.08 1395.07 1024.13 C 1386.27 1041.92 1373.57 1060.83 1363.47 1078.23 C 1343.43 1112.75 1322.02 1147.31 1302.83 1182.25 C 1243 1147.07 1182.85 1112.43 1122.38 1078.35 C 1098.14 1064.53 1063.92 1043.28 1039.92 1031.19 L 1026.88 1023.44 C 1050.73 1008.26 1077.32 994.425 1101.99 980.441 L 1226.8 909.046 C 1242.58 899.966 1258.32 890.805 1274 881.562 C 1281.15 877.355 1293.77 870.399 1299.9 865.437 z" fill="rgb(11,16,32)" transform="translate(0,0)"></path>
<path d="M 1208.01 686.011 L 1490.13 686.938 L 1560.29 687.091 C 1566.7 687.11 1588.98 687.559 1593.87 686.713 C 1595.95 689.916 1596.67 689.761 1596.3 693.712 C 1595.97 697.244 1589.77 707.994 1587.68 710.125 L 1587.16 709.638 C 1586.89 706.878 1590.69 701.708 1592.45 698.695 L 1592.02 697.861 C 1585.31 700.116 1583.65 705.903 1575.98 709.883 L 1574.97 709.37 L 1573.6 710.41 C 1550.39 722.475 1525.14 738.437 1502.01 751.65 L 1372.27 824.843 C 1362.73 830.256 1315.81 857.975 1308.88 860 L 1307.11 857.953 C 1296.23 842.013 1280.54 812.457 1270.67 795.015 L 1214.41 696.008 C 1211.23 691.983 1210.4 690.572 1208.01 686.011 z" fill="rgb(11,16,32)" transform="translate(0,0)"></path>
<path d="M 1208.01 686.011 L 1490.13 686.938 L 1560.29 687.091 C 1566.7 687.11 1588.98 687.559 1593.87 686.713 C 1589.76 689.913 1580.44 697.119 1576.85 700.159 C 1571.55 699.376 1554.19 699.753 1547.78 699.716 L 1490.11 699.261 C 1427.07 699.024 1364.04 698.385 1301.01 697.343 C 1275.74 696.995 1238.56 698.169 1214.41 696.008 C 1211.23 691.983 1210.4 690.572 1208.01 686.011 z" fill="rgb(135,82,31)" transform="translate(0,0)"></path>
<path d="M 1593.87 686.713 C 1595.95 689.916 1596.67 689.761 1596.3 693.712 C 1595.97 697.244 1589.77 707.994 1587.68 710.125 L 1587.16 709.638 C 1586.89 706.878 1590.69 701.708 1592.45 698.695 L 1592.02 697.861 C 1585.31 700.116 1583.65 705.903 1575.98 709.883 L 1574.97 709.37 L 1573.6 710.41 C 1550.39 722.475 1525.14 738.437 1502.01 751.65 L 1372.27 824.843 C 1362.73 830.256 1315.81 857.975 1308.88 860 L 1307.11 857.953 C 1354.48 832.282 1403.16 802.792 1449.66 775.102 L 1576.85 700.159 C 1580.44 697.119 1589.76 689.913 1593.87 686.713 z" fill="url(#Gradient1)" transform="translate(0,0)"></path>
<path d="M 482.213 1346.57 L 476.132 1345.98 L 475.354 1344.94 C 480.195 1341.26 491.791 1334.93 497.453 1331.63 L 538.323 1307.73 C 576.981 1285.16 615.581 1261.9 654.385 1239.77 C 673.272 1229.04 692.102 1218.22 710.875 1207.29 C 719.471 1202.3 732.296 1195.28 740.209 1189.91 C 771.353 1242.17 801.861 1294.81 831.726 1347.81 C 835.066 1352.04 836.72 1355.48 839.264 1360.18 L 571.468 1359.25 C 534.647 1359.02 490.638 1360.27 454.514 1358.76 C 448.84 1357.71 450.104 1353.42 451.494 1349.43 C 460.933 1349.07 473.506 1334.94 470.667 1348.16 L 489.804 1347.59 L 490.352 1348.22 C 491.38 1348.12 492.996 1348.2 493.469 1347.69 C 489.75 1347.57 485.777 1347.72 482.213 1346.57 z" fill="rgb(11,16,32)" transform="translate(0,0)"></path>
<path d="M 451.494 1349.43 C 460.933 1349.07 473.506 1334.94 470.667 1348.16 L 489.804 1347.59 L 490.352 1348.22 C 491.38 1348.12 492.996 1348.2 493.469 1347.69 C 489.75 1347.57 485.777 1347.72 482.213 1346.57 C 496.624 1344.93 535.971 1346.97 553.444 1346.97 C 614.513 1346.79 675.583 1347.08 736.647 1347.86 L 796.689 1348.15 C 806.311 1348.18 822.572 1348.63 831.726 1347.81 C 835.066 1352.04 836.72 1355.48 839.264 1360.18 L 571.468 1359.25 C 534.647 1359.02 490.638 1360.27 454.514 1358.76 C 448.84 1357.71 450.104 1353.42 451.494 1349.43 z" fill="rgb(135,82,31)" transform="translate(0,0)"></path>
<path d="M 451.494 1349.43 C 460.933 1349.07 473.506 1334.94 470.667 1348.16 C 463.384 1352.25 463.938 1352.44 457.379 1357 L 475.926 1356.97 C 476.676 1356.97 477.547 1356.96 478.162 1357.26 L 478.176 1357.37 C 478.042 1357.37 477.908 1357.37 477.773 1357.36 L 477.925 1357.42 L 476.524 1357.3 L 475.968 1357.61 C 475.313 1357.59 474.657 1357.58 474.002 1357.56 C 467.487 1357.55 460.979 1357.96 454.514 1358.76 C 448.84 1357.71 450.104 1353.42 451.494 1349.43 z" fill="rgb(184,103,23)" transform="translate(0,0)"></path>
<path d="M 468.516 686.97 C 477.087 686.147 498.713 686.806 508.097 686.839 L 586.221 687.004 L 839.63 686.189 C 837.643 689.76 835.692 693.35 833.777 696.96 C 823.622 711.395 809.993 736.752 800.829 752.549 L 740.672 856.523 C 654.228 807.105 564.381 753.606 478.863 702.454 L 476.051 701.266 L 474.998 700.643 C 472.118 699.794 469.567 698.18 466.788 697.053 C 463.467 690.17 459.797 688.676 466.797 687.406 L 468.516 686.97 z" fill="rgb(11,16,32)" transform="translate(0,0)"></path>
<path d="M 468.516 686.97 C 477.087 686.147 498.713 686.806 508.097 686.839 L 586.221 687.004 L 839.63 686.189 C 837.643 689.76 835.692 693.35 833.777 696.96 L 617.105 699.023 C 586.586 699.039 556.067 699.281 525.552 699.748 C 515.692 699.9 498.001 699.382 489.364 700.143 C 485.35 699.982 477.621 698.874 474.998 700.643 C 472.118 699.794 469.567 698.18 466.788 697.053 C 463.467 690.17 459.797 688.676 466.797 687.406 L 468.516 686.97 z" fill="rgb(135,82,31)" transform="translate(0,0)"></path>
<path d="M 473.8 708.102 C 478.636 711.637 484.297 714.646 489.538 717.612 C 529.73 738.539 574.965 766.269 615.203 788.925 L 696.264 834.901 C 708.698 841.972 726.763 851.511 738.474 859.076 L 684.93 951.857 C 673.563 971.78 660.909 995.191 648.474 1014.18 L 522.878 797.25 L 494.182 747.414 C 491.888 743.432 482.937 728.393 481.471 724.688 C 478.743 720.907 474.604 713.206 472.121 708.847 L 473.8 708.102 z" fill="rgb(11,16,32)" transform="translate(0,0)"></path>
<path d="M 1573.6 710.41 C 1572.44 718.775 1422.14 976.406 1403.86 1008.24 C 1402.57 1011.04 1402 1013.05 1399.57 1014.9 C 1396.83 1013.18 1396.85 1011.72 1395.13 1008.3 C 1389.79 1001.19 1309.31 863.665 1308.88 860 C 1315.81 857.975 1362.73 830.256 1372.27 824.843 L 1502.01 751.65 C 1525.14 738.437 1550.39 722.475 1573.6 710.41 z" fill="rgb(11,16,32)" transform="translate(0,0)"></path>
<path d="M 1025.71 1363.74 L 1026.15 1361.4 C 1026.58 1361 1027 1360.6 1027.43 1360.2 C 1074.95 1359.1 1153.94 1361.06 1198.3 1359.69 L 1026.78 1652.23 L 1026.81 1573.54 C 1026.79 1561.81 1027.16 1541.17 1026.16 1529.98 C 1027.27 1516.27 1026.24 1484.37 1026.2 1469.66 C 1026.1 1434.89 1026.56 1398.4 1025.71 1363.74 z" fill="rgb(11,16,32)" transform="translate(0,0)"></path>
<path d="M 851.712 1360.16 C 865.707 1360.64 880.267 1360.63 894.286 1360.42 C 936.405 1359.76 979.029 1361.55 1021.09 1360.3 L 1020.52 1531.87 C 1020.24 1568.8 1019.04 1610.04 1019.84 1646.64 L 1018.63 1646.58 C 1015.96 1643.34 1010.58 1632.95 1008.55 1629.06 C 1006.44 1626.47 995.224 1606.82 992.781 1602.7 L 957.007 1542.09 C 922.054 1482.2 884.127 1420.96 851.712 1360.16 z" fill="rgb(11,16,32)" transform="translate(0,0)"></path>
<path d="M 1025.8 581.472 C 1026.63 561.352 1025.56 540.512 1026.22 520.295 C 1027.54 480.288 1026.33 439.952 1027.38 399.99 L 1028.43 399.425 L 1034.88 410.554 L 1126.21 566.567 C 1147.83 604.164 1172.8 648.726 1195.73 685.005 L 1025.81 685.018 C 1025.92 650.95 1026.42 615.449 1025.8 581.472 z" fill="rgb(11,16,32)" transform="translate(0,0)"></path>
<path d="M 1008.46 418.694 L 1019.36 399.559 L 1019.17 417.999 C 1020.19 452.134 1019.86 487.759 1020.05 521.999 C 1020.67 576.585 1020.94 631.174 1020.87 685.764 C 1006.27 686.741 980.888 686.044 965.481 686.06 L 851.769 685.824 C 855.544 677.979 863.108 665.949 867.718 658.19 L 897.983 607.16 L 1008.46 418.694 z" fill="rgb(11,16,32)" transform="translate(0,0)"></path>
<path d="M 451.295 688.225 C 456.742 685.968 462.361 686.864 468.516 686.97 L 466.797 687.406 C 459.797 688.676 463.467 690.17 466.788 697.053 C 469.567 698.18 472.118 699.794 474.998 700.643 L 476.051 701.266 C 475.645 705.212 475.824 704.852 473.8 708.102 L 472.121 708.847 C 471.599 711.246 472.134 711.15 470.294 712.239 L 470.198 712.483 L 470.027 712.496 C 468.828 711.292 470.413 706.658 467 709.833 C 467.825 713.749 465.445 712.81 466.007 714.977 C 467.259 719.798 472.773 723.998 472.352 729.514 C 466.173 720.509 457.848 703.704 451.031 694.018 C 450.433 693.169 451.128 689.293 451.295 688.225 z" fill="rgb(195,99,20)" transform="translate(0,0)"></path>
<path d="M 451.295 688.225 C 454.143 689.758 457.626 691.753 460.379 693.365 C 465.031 696.09 468.226 702.592 459.6 699.031 L 459.235 699.157 C 459.234 699.164 465.937 709.133 467 709.833 C 467.825 713.749 465.445 712.81 466.007 714.977 C 467.259 719.798 472.773 723.998 472.352 729.514 C 466.173 720.509 457.848 703.704 451.031 694.018 C 450.433 693.169 451.128 689.293 451.295 688.225 z" fill="rgb(184,103,23)" transform="translate(0,0)"></path>
<path d="M 1308.67 1190.48 C 1375.99 1229.15 1443.1 1268.2 1509.98 1307.64 C 1531.58 1320.26 1553.46 1334.01 1575.18 1346.15 C 1545.98 1347.24 1513 1346.7 1483.5 1346.88 L 1216.91 1348.18 C 1246.67 1295.14 1277.26 1242.57 1308.67 1190.48 z" fill="rgb(11,16,32)" transform="translate(0,0)"></path>
<path d="M 647.477 1030.22 C 649.765 1033.47 651.559 1036.47 653.618 1039.87 C 672.774 1070.71 691.58 1104.41 709.831 1135.88 C 718.51 1150.85 731.139 1171.46 738.808 1186.4 L 557.041 1289.67 C 540.877 1298.91 524.745 1308.13 508.547 1317.31 C 496.412 1324.19 482.001 1331.28 470.52 1338.82 C 527.02 1238.91 586.86 1140.93 642.405 1040.14 L 647.477 1030.22 z" fill="rgb(11,16,32)" transform="translate(0,0)"></path>
<path d="M 1394.14 1040.15 C 1396.11 1036.25 1396.12 1034.44 1399.21 1032.71 C 1401.76 1034.23 1402.57 1036.85 1403.95 1039.64 L 1504.99 1215.5 C 1527.22 1253.82 1554.85 1298.28 1575.02 1337.07 C 1538.16 1314.84 1494.33 1291.06 1456.52 1269.78 L 1310.63 1186.9 C 1337.52 1137.39 1367.19 1089.62 1394.14 1040.15 z" fill="rgb(11,16,32)" transform="translate(0,0)"></path>
<metadata><recraft-signature>{"signed_by": "recraft", "signature_b64": "FdX/AJoDjEdqtWbouGkFX7FU2cGGu0j0einQDnA3K3tFOIrOq/UsmefAHqc0QISA9PSRXrBHJ/R5c/UOAjK+AA==", "signing_algo": "Ed25519", "generation_timestamp": 1783378923, "identifier": "c30ce0c3-d860-4033-a525-488fa124cb2e"}</recraft-signature></metadata></svg>