<svg xmlns="http://www.w3.org/2000/svg" height="1024" preserveAspectRatio="none" style="display: block;" version="1.1" viewBox="0 0 2048 2048" width="1024">
<path d="M 0 0 L 2048 0 L 2048 2048 L 0 2048 L 0 0 z" fill="#0d0d10" transform="translate(0,0)"></path>
<path d="M 858.43 663.113 C 907.028 692.178 955.437 719.107 1012.78 726.63 C 1022.03 727.844 1036.29 729.114 1045.59 728.268 C 1057.09 763.032 1090.97 798.424 1123.82 814.916 C 1151.8 829.273 1184.46 831.508 1214.14 821.1 C 1226.22 816.99 1233.39 812.854 1244.26 806.29 L 1248.36 816.757 C 1266.11 868.248 1278.08 919.067 1288.48 972.349 C 1296.13 1014.28 1305.2 1099.2 1303.71 1140.68 C 1302.55 1198.61 1297.01 1269.86 1281.71 1325.83 C 1268.9 1387.04 1231.39 1465.3 1190.53 1512.72 C 1171.31 1534.94 1149.06 1554.34 1124.44 1570.36 C 1008.49 1645.82 888.837 1576.11 823.078 1471.18 C 794.844 1426.13 776.16 1379.07 764.203 1327.17 C 751.913 1289.52 742.177 1181.94 744.488 1140.99 C 745.802 1079.52 751.233 1032.03 760.566 971.934 C 770.712 913.75 782.357 870.743 797.16 814.954 C 807.733 783.281 818.862 751.61 831.546 720.713 C 839.502 701.333 849.306 682.013 858.43 663.113 z" fill="rgb(150,61,151)" transform="translate(0,0)"></path>
<path d="M 858.43 663.113 C 907.028 692.178 955.437 719.107 1012.78 726.63 C 1022.03 727.844 1036.29 729.114 1045.59 728.268 C 1057.09 763.032 1090.97 798.424 1123.82 814.916 C 1151.8 829.273 1184.46 831.508 1214.14 821.1 C 1226.22 816.99 1233.39 812.854 1244.26 806.29 L 1248.36 816.757 C 1266.11 868.248 1278.08 919.067 1288.48 972.349 C 1288.18 972.622 1287.88 972.896 1287.58 973.169 C 1227.44 1019.08 1158.27 1060.3 1085.93 1082.93 C 989.27 1113.17 896.386 1063.09 817.104 1012.65 C 799.911 1001.71 774.079 986.949 760.566 971.934 C 770.712 913.75 782.357 870.743 797.16 814.954 C 807.733 783.281 818.862 751.61 831.546 720.713 C 839.502 701.333 849.306 682.013 858.43 663.113 z" fill="rgb(245,130,31)" transform="translate(0,0)"></path>
<path d="M 858.43 663.113 C 907.028 692.178 955.437 719.107 1012.78 726.63 C 1022.03 727.844 1036.29 729.114 1045.59 728.268 C 1057.09 763.032 1090.97 798.424 1123.82 814.916 C 1151.8 829.273 1184.46 831.508 1214.14 821.1 C 1226.22 816.99 1233.39 812.854 1244.26 806.29 L 1248.36 816.757 C 1246.34 817.753 1247.18 817.226 1245.54 818.417 C 1226.04 832.648 1204.11 846.351 1182.94 858.005 C 1173.59 863.153 1157.49 873.785 1148.33 877.97 C 1112.03 894.555 1076.56 910.621 1036.28 912.811 C 965.274 916.672 898.118 879.146 839.164 843.621 C 829.499 837.797 805.186 822.096 797.16 814.954 C 807.733 783.281 818.862 751.61 831.546 720.713 C 839.502 701.333 849.306 682.013 858.43 663.113 z" fill="rgb(253,184,39)" transform="translate(0,0)"></path>
<path d="M 744.488 1140.99 C 745.802 1079.52 751.233 1032.03 760.566 971.934 C 774.079 986.949 799.911 1001.71 817.104 1012.65 C 896.386 1063.09 989.27 1113.17 1085.93 1082.93 C 1158.27 1060.3 1227.44 1019.08 1287.58 973.169 C 1287.88 972.896 1288.18 972.622 1288.48 972.349 C 1296.13 1014.28 1305.2 1099.2 1303.71 1140.68 C 1288.08 1148.48 1274.46 1161.95 1259.53 1171.2 C 1199.79 1208.19 1121.97 1258.78 1051.46 1268.48 C 1021.37 1272.32 990.802 1269.55 961.889 1260.37 C 904.138 1242.16 846.029 1208.62 795.469 1175.52 C 782.995 1167.36 754.626 1146.12 744.488 1140.99 z" fill="rgb(224,58,62)" transform="translate(0,0)"></path>
<path d="M 764.203 1327.17 C 773.13 1331.37 779.861 1338.13 788.069 1343.3 C 873.781 1397.25 983.843 1465.92 1088.72 1429.86 C 1134.07 1414.26 1184.23 1389.14 1224.19 1364.33 C 1235.38 1357.3 1246.35 1349.94 1257.11 1342.28 C 1263.93 1337.44 1274.25 1328.57 1281.71 1325.83 C 1268.9 1387.04 1231.39 1465.3 1190.53 1512.72 C 1171.31 1534.94 1149.06 1554.34 1124.44 1570.36 C 1008.49 1645.82 888.837 1576.11 823.078 1471.18 C 794.844 1426.13 776.16 1379.07 764.203 1327.17 z" fill="rgb(0,157,220)" transform="translate(0,0)"></path>
<path d="M 1023.06 446.498 C 1055.57 476.6 1101.06 524.993 1127.94 560.466 C 1122.2 563.507 1116.36 566.532 1110.79 569.862 C 1053.69 603.969 1025.75 663.326 1045.59 728.268 C 1036.29 729.114 1022.03 727.844 1012.78 726.63 C 955.437 719.107 907.028 692.178 858.43 663.113 C 883.705 613.975 926.939 549.629 963.436 509.113 C 974.441 496.907 985.667 484.902 997.108 473.104 C 1005.12 464.999 1015.96 454.965 1023.06 446.498 z" fill="rgb(97,187,70)" transform="translate(0,0)"></path>
<metadata><recraft-signature>{"signed_by": "recraft", "signature_b64": "sPydBo1WEQrBMGCHw0Rn7dPRW0w0jAY5B7/wWyTiJ0prpXxu3ZSAM1tHEwSSsCeT9DdD0v4EyKXSKKuPCPtWDA==", "signing_algo": "Ed25519", "generation_timestamp": 1783389055, "identifier": "c906c447-f44d-43d6-9ff9-647f8cc156fa"}</recraft-signature></metadata></svg>